<?xml version="1.0" encoding="utf-8"?>
<svg xmlns="http://www.w3.org/2000/svg" width="214" height="72" viewBox="0 0 214 72" role="img" aria-labelledby="title desc">
  <title id="title">وكيل wkil logo</title>
  <desc id="desc">Arabic-first Wkil logo lockup using the matching animated Wkil mark.</desc>

  <svg x="0" y="5" width="62" height="62" viewBox="226 112 92 92" aria-hidden="true" focusable="false">
    <g transform="matrix(0.909091, 0, 0, 0.909091, 221.189014, 116.646623)">
      <path fill="#7EE0C3" d="M48 13C64 13 78 25 80 43C82 60 72 74 56 80C49 83 40 84 30 84C38 80 44 76 48 72C35 71 24 63 21 50C17 33 30 17 48 13Z"/>
      <path fill="#F7F3EA" d="M 49 27 C 60 27 69 35 70 46 C 71 56 65 64 56 67 C 50 69 44.712 67.288 40 66 C 35.288 64.712 30.269 58.731 29 54 C 26 45 29 37 36 32 C 40 29 44 27 49 27 Z"/>
      <circle cx="38" cy="48" r="4.3" fill="#0E7C73">
        <animateTransform type="translate" additive="sum" attributeName="transform" values="0 0;0 0;0 0;0 -3;0 0;0 0;0 0;0 -3;0 0;0 0;0 0;0 0;0 0" dur="13s" repeatCount="indefinite" keyTimes="0;0.538462;0.579459;0.589474;0.601224;0.612467;0.621302;0.629752;0.643277;0.654688;0.663990;0.769231;1"/>
      </circle>
      <circle cx="26.367" cy="74.868" r="6.4" fill="#D99A2B" style="transform-box: fill-box; transform-origin: 50% 50%;">
        <animateTransform type="translate" additive="sum" attributeName="transform" values="0 0;0 0;21.5 -2.5;21.5 -2.5;0 0;0 0" dur="13s" repeatCount="indefinite" keyTimes="0;0.538462;0.560017;0.763314;0.769231;1"/>
        <animateTransform type="scale" additive="sum" attributeName="transform" values="1 1;1 1;0.1 0.1;0.1 0.1;1 1;1 1" dur="13s" repeatCount="indefinite" keyTimes="0;0.538462;0.560017;0.763314;0.769231;1"/>
        <animate attributeName="fill-opacity" values="1;1;1;0;0;1;1" dur="13s" repeatCount="indefinite" keyTimes="0;0.538462;0.552054;0.560017;0.763314;0.769231;1"/>
      </circle>
      <animateTransform type="translate" additive="sum" attributeName="transform" values="0 0;0 0" dur="13s" repeatCount="indefinite"/>
      <circle cx="62.603" cy="48.166" r="4.517" fill="#D99A2B" style="stroke-width: 1; transform-origin: 62.603px 48.166px;" transform="matrix(1, 0, 0, 1.000001, -1.773299, -0.156946)">
        <animate attributeName="fill-opacity" values="0;0;0;1;1;0;0" dur="13s" repeatCount="indefinite" keyTimes="0;0.538462;0.558338;0.580304;0.763314;0.769231;1"/>
        <animateTransform type="translate" additive="sum" attributeName="transform" values="0 0;0 0;0 0;0 0;0 0;0 -3;0 0;0 0;0 0;0 -3;0 0;0 0;0 0" dur="13s" repeatCount="indefinite" keyTimes="0;0.538462;0.580727;0.590790;0.602455;0.613613;0.622992;0.633049;0.645306;0.658154;0.664835;0.769231;1"/>
      </circle>
      <circle cx="49.588" cy="47.81" r="4.3" fill="#0E7C73" style="stroke-width: 1;">
        <animateTransform type="translate" additive="sum" attributeName="transform" values="0 0;0 0;0 0;0 0;0 -3;0 0;0 0;0 0;0 -3;0 0;0 0;0 0;0 0" dur="13s" repeatCount="indefinite" keyTimes="0;0.538462;0.579459;0.589474;0.601224;0.612467;0.621302;0.631781;0.643530;0.654689;0.663990;0.769231;1"/>
      </circle>
    </g>
  </svg>

  <text x="72" y="38" font-family="Cairo, 'Noto Kufi Arabic', 'Segoe UI', Tahoma, sans-serif" font-size="35" font-weight="850" fill="#132322">وكيل</text>
  <text x="74" y="58" font-family="Geist, Inter, Arial, sans-serif" font-size="12" font-weight="800" letter-spacing="2.4" fill="#0E7C73">wkil</text>
</svg>
